<?xml version="1.0" encoding="utf-8"?>
<!-- Generator: Adobe Illustrator 23.0.3, SVG Export Plug-In . SVG Version: 6.00 Build 0)  -->
<svg version="1.1" xmlns="http://www.w3.org/2000/svg" xmlns:xlink="http://www.w3.org/1999/xlink" x="0px" y="0px"
	 viewBox="0 0 256 256" style="enable-background:new 0 0 256 256;" xml:space="preserve">
<style type="text/css">
	.st0{fill:#878787;}
	.st1{fill:#F2E1D6;}
	.st2{fill:#FFFFFF;}
	.st3{fill:#F0C020;}
	.st4{fill:#F9E5AF;}
	.st5{fill:#72C1E8;}
	.st6{fill:#C5E5FF;}
	.st7{fill:#13BF6D;}
	.st8{fill:#76FFBA;}
	.st9{fill:#EFEFEF;}
	.st10{fill:#FC5D3D;}
	.st11{fill:#FFCBC2;}
	.st12{fill:#FFB69F;}
	.st13{fill:#AFAFAF;}
	.st14{fill:#7C7B7A;}
	.st15{fill:#D6C0B4;}
	.st16{fill:#7A7380;}
	.st17{fill:#F0AB20;}
	.st18{fill:#FBE0E2;}
	.st19{fill:#4C4945;}
	.st20{fill:#68B0D4;}
	.st21{fill:#B35034;}
	.st22{fill:#EDAF85;}
	.st23{fill:#139C6D;}
</style>
<g id="Layer_2">
</g>
<g id="Layer_1">
	<g>
		<path class="st14" d="M105.642,164.47l-1.74-1.74l-10.63-10.63l-1.75-1.75c-2.34-2.35-6.15-2.35-8.5,0l-73.19,73.19
			c-6.12,6.13-6.31,16.08-0.3,22.31c5.74,6.38,16.33,6.89,22.91,0.31l73.2-73.2C107.982,170.62,107.982,166.81,105.642,164.47z"/>
		<path class="st9" d="M15.111,240.835l-0.212-0.228c-0.94-1.011-0.883-2.593,0.128-3.533c1.011-0.94,2.593-0.884,3.533,0.128
			l0.241,0.259c1.049,1.167,3.349,1.311,4.803-0.141l59.768-59.768c0.976-0.977,2.56-0.977,3.535,0c0.977,0.976,0.977,2.559,0,3.535
			l-59.768,59.768C23.626,244.368,18.009,244.059,15.111,240.835z M90.442,174.016c-0.977-0.976-0.977-2.559,0-3.535l3.536-3.536
			c0.976-0.977,2.56-0.977,3.535,0c0.977,0.976,0.977,2.559,0,3.535l-3.536,3.536C93.002,174.993,91.418,174.993,90.442,174.016z"/>
		<path class="st1" d="M235.872,85.33c0,35.77-28.67,64.58-63.99,65.23c-36.45,0.67-66.43-28.71-66.43-65.23
			c0-35.95,29.1-65.19,65.2-65.19C206.352,20.14,235.872,49.01,235.872,85.33z"/>
		<path class="st3" d="M212.283,85.34c0,22.28-18.06,40.34-40.34,40.34c-18.66,0-34.37-12.68-38.97-29.91
			c6.02-0.69,10.71-5.8,10.71-12.01c0-5.88-4.21-10.78-9.77-11.86c5.53-15.66,20.47-26.89,38.03-26.89
			C194.223,45.01,212.283,63.07,212.283,85.34z"/>
		<path class="st2" d="M143.628,136.346c-1.22-0.646-1.686-2.159-1.041-3.379c0.647-1.22,2.159-1.685,3.379-1.041
			c7.885,4.173,16.932,6.337,26.161,6.087c28.449-0.772,51.222-23.951,51.222-52.635c0-14.112-5.477-27.36-15.42-37.304
			c-0.977-0.976-0.977-2.559,0-3.535c0.976-0.977,2.56-0.977,3.535,0c10.889,10.888,16.885,25.392,16.885,40.839
			c0,31.445-25.031,56.932-56.348,57.64C162.08,143.242,152.263,140.915,143.628,136.346z M134.886,130.643
			c-1.754-1.387-3.45-2.897-5.04-4.487c-0.976-0.977-0.976-2.56,0-3.536s2.559-0.976,3.536,0c1.453,1.454,3.002,2.833,4.605,4.101
			c1.083,0.856,1.267,2.429,0.41,3.512C137.541,131.317,135.966,131.497,134.886,130.643z"/>
		<path class="st14" d="M170.662,5.13c-44,0-80.22,35.63-80.22,80.2c0,19.45,6.92,37.27,18.44,51.16v0.01
			c3.19,3.86,6.75,7.42,10.62,10.63c13.83,11.47,31.67,18.43,51.16,18.43c44.24,0,80.21-35.87,80.21-80.23
			C250.872,40.95,214.852,5.13,170.662,5.13z M170.652,20.14c35.7,0,65.22,28.87,65.22,65.19c0,35.77-28.67,64.58-63.99,65.23
			c-36.45,0.67-66.43-28.71-66.43-65.23C105.452,49.38,134.552,20.14,170.652,20.14z"/>
		<path class="st2" d="M119.502,147.13l-15.6,15.6l-10.63-10.63l15.61-15.6C112.072,140.36,115.632,143.92,119.502,147.13z"/>
		<circle class="st10" cx="158.008" cy="72.843" r="7.25"/>
		<circle class="st10" cx="45.675" cy="107.093" r="7.25"/>
		<circle class="st10" cx="18.675" cy="83.426" r="7.25"/>
		<circle class="st10" cx="190.296" cy="80.093" r="7.25"/>
		<circle class="st10" cx="166.425" cy="99.843" r="7.25"/>
		<path class="st3" d="M65.94,78.722c-4.391,4.391-11.321,4.688-16.065,0.919c3.971-6.879,10.11-12.674,17.543-16.214
			C70.585,68.122,70.097,74.564,65.94,78.722z"/>
		<path d="M182.302,43.77c-1.33-0.33-2.71,0.51-3.03,1.82c-0.33,1.341,0.466,2.697,1.82,3.03c1.385,0.348,2.701-0.503,3.03-1.82
			C184.458,45.435,183.621,44.094,182.302,43.77z"/>
		<path d="M132.692,93.29c-1.546,0.169-2.525,1.668-2.13,3.12c4.82,18.127,21.411,31.77,41.38,31.77
			c23.654,0,42.84-19.146,42.84-42.84c0-15.81-8.66-30.27-22.6-37.75c-1.131-0.629-2.691-0.258-3.38,1.01
			c-0.65,1.22-0.2,2.74,1.02,3.39c0,0,0.01,0,0.01,0.01c12.31,6.62,19.95,19.39,19.95,33.34c0,20.905-16.908,37.84-37.85,37.84
			c-16.16,0-30.54-10.27-35.78-25.56c6-1.97,10.03-7.54,10.03-13.86c0-5.9-3.52-11.18-8.96-13.46
			c5.99-13.79,19.55-22.74,34.58-22.79c1.408,0,2.51-1.155,2.49-2.51c0-1.37-1.12-2.49-2.5-2.49
			c-18.573,0.062-34.352,11.923-40.24,28.56c-0.496,1.408,0.354,2.981,1.89,3.28c4.49,0.88,7.75,4.83,7.74,9.41
			C141.192,88.639,137.542,92.73,132.692,93.29z"/>
		<path d="M235.472,132.67c1.133,0.782,2.707,0.496,3.47-0.65c0.78-1.13,0.49-2.69-0.65-3.47c-1.09-0.75-2.71-0.45-3.46,0.64
			c-0.01,0-0.01,0-0.01,0.01C234.042,130.33,234.332,131.889,235.472,132.67z"/>
		<path d="M34.212,247.929l73.2-73.2c3.388-3.409,3.224-8.778,0.022-12.006l12.255-12.255
			c14.237,11.163,31.926,17.591,50.963,17.591h0.01c23.386,0,45.939-9.827,61.95-27.92c0.91-1.03,0.82-2.61-0.22-3.53
			c-0.99-0.88-2.65-0.77-3.53,0.22c-14.76,16.67-35.97,26.23-58.2,26.23c-18.08,0-35.68-6.35-49.56-17.86
			c-3.74-3.1-7.2-6.56-10.3-10.3c-11.51-13.89-17.86-31.5-17.86-49.57c0-43.335,35.189-77.7,77.72-77.7
			c42.888,0,77.71,34.72,77.71,77.7c0,12.54-2.89,24.5-8.59,35.56c-0.63,1.23-0.15,2.74,1.08,3.37c1.2,0.62,2.75,0.11,3.36-1.08
			c5.809-11.245,9.15-24.134,9.15-37.85c0-45.756-37.12-82.7-82.71-82.7c-45.438,0-82.72,36.795-82.72,82.7
			c0,18.076,5.815,35.946,17.589,50.979l-12.256,12.256c-3.292-3.275-8.678-3.331-12.024,0.015l-10.14,10.14
			c-0.97,0.97-0.97,2.56,0,3.54c0.95,0.94,2.59,0.94,3.54,0c0-0.01,0-0.01,0.01-0.01l10.13-10.13c1.399-1.399,3.611-1.359,4.96-0.01
			l14.12,14.13c1.358,1.337,1.378,3.572,0,4.95l-73.2,73.2c-5.772,5.772-14.922,4.899-19.34-0.28
			c-5.033-5.223-4.928-13.602,0.27-18.8l48.91-48.91c0.975-0.975,0.975-2.565,0-3.54c-0.95-0.94-2.59-0.94-3.54,0l-48.91,48.91
			c-7.15,7.17-7.214,18.654-0.37,25.77C14.358,254.922,26.582,255.559,34.212,247.929z M108.734,140.177
			c2.168,2.446,4.893,5.142,7.088,7.087L103.9,159.187l-7.087-7.087L108.734,140.177z"/>
		<path d="M64.042,165.79c-0.97,0.97-0.97,2.56,0,3.53c0.968,0.989,2.572,0.989,3.54,0c0.994-0.993,0.957-2.574,0-3.53
			C66.632,164.85,64.992,164.85,64.042,165.79z"/>
		<path d="M171.919,153.058c36.648-0.674,66.453-30.547,66.453-67.728c0-37.528-30.457-67.69-67.72-67.69
			c-32.944,0-60.478,23.536-66.48,54.84c-0.26,1.35,0.63,2.67,1.98,2.92c1.34,0.26,2.67-0.65,2.93-1.98
			c5.65-29.42,31.55-50.78,61.57-50.78c34.505,0,62.72,27.883,62.72,62.69c0,34.345-27.459,62.069-61.491,62.728
			c-32.409,0.627-59.841-23.435-63.518-55.488c-0.15-1.36-1.39-2.35-2.77-2.2c-1.37,0.16-2.35,1.4-2.19,2.77
			C107.329,127.438,136.828,153.704,171.919,153.058z"/>
		<path d="M105.502,85.369c1.34,0,2.44-1.05,2.49-2.39c0-0.01,0-0.01,0-0.02c0.06-1.37-1.02-2.54-2.4-2.59
			c-1.41-0.07-2.54,1.03-2.59,2.41c-0.05,1.38,1.03,2.54,2.4,2.59C105.442,85.369,105.472,85.369,105.502,85.369z"/>
		<path d="M167.762,72.839c-0.01-5.37-4.38-9.74-9.75-9.75c-5.38,0.01-9.75,4.38-9.75,9.75c0,5.38,4.37,9.75,9.75,9.75
			C163.382,82.589,167.752,78.219,167.762,72.839z M158.012,77.589c-2.62,0-4.75-2.13-4.75-4.75c0-2.61,2.13-4.74,4.75-4.75
			c2.61,0.01,4.74,2.14,4.75,4.75C162.752,75.46,160.622,77.589,158.012,77.589z"/>
		<path d="M180.542,80.089c0.01,5.38,4.38,9.75,9.75,9.75c5.38,0,9.75-4.37,9.75-9.75c0-5.37-4.37-9.74-9.75-9.75
			C184.922,70.35,180.552,74.719,180.542,80.089z M190.292,75.339c2.62,0.01,4.75,2.14,4.75,4.75c0,2.62-2.13,4.75-4.75,4.75
			c-2.61,0-4.74-2.13-4.75-4.75C185.552,77.48,187.682,75.35,190.292,75.339z"/>
		<path d="M166.422,109.589c5.38,0,9.75-4.37,9.75-9.75c0-5.37-4.37-9.74-9.75-9.75c-5.37,0.01-9.75,4.38-9.75,9.75
			C156.672,105.219,161.052,109.589,166.422,109.589z M166.422,95.089c2.62,0.01,4.75,2.14,4.75,4.75c0,2.62-2.13,4.75-4.75,4.75
			c-2.61,0-4.74-2.13-4.75-4.75C161.682,97.23,163.812,95.1,166.422,95.089z"/>
		<path d="M35.922,107.089c0,5.38,4.38,9.75,9.75,9.75c5.38,0,9.75-4.37,9.75-9.75c0-5.37-4.37-9.75-9.75-9.75
			C40.302,97.339,35.922,101.719,35.922,107.089z M50.422,107.089c0,2.62-2.13,4.75-4.75,4.75c-2.61,0-4.74-2.13-4.75-4.75
			c0.01-2.61,2.14-4.74,4.75-4.75C48.292,102.35,50.422,104.48,50.422,107.089z"/>
		<path d="M8.922,83.429c0,5.37,4.38,9.74,9.75,9.75c5.38-0.01,9.75-4.38,9.75-9.75c0-5.38-4.37-9.75-9.75-9.75
			C13.302,73.679,8.922,78.049,8.922,83.429z M23.422,83.429c0,2.61-2.13,4.74-4.75,4.75c-2.61-0.01-4.74-2.14-4.75-4.75
			c0.01-2.62,2.14-4.75,4.75-4.75C21.292,78.679,23.422,80.81,23.422,83.429z"/>
		<path d="M69.492,62.029c-0.68-1-2.06-1.38-3.15-0.86c-8.015,3.824-14.483,10.025-18.63,17.22c-0.62,1.07-0.36,2.44,0.61,3.21
			c5.595,4.458,13.986,4.294,19.38-1.1c0,0,0-0.01,0.01-0.01C72.771,75.413,73.276,67.659,69.492,62.029z M64.172,76.949
			c0,0.01-0.01,0.01-0.01,0.01c-2.9,2.9-7.258,3.572-10.85,1.89c3.241-4.874,7.702-9.078,13.05-12.06
			C67.646,70.255,66.898,74.223,64.172,76.949z"/>
	</g>
</g>
</svg>
